<svg id="Layer_1" data-name="Layer 1" xmlns="http://www.w3.org/2000/svg" width="2720" height="750" viewBox="0 0 2720 750"><defs><style>.cls-1{fill:#fbb03b;}.cls-2{fill:#39b54a;}.cls-3{fill:#ffdb9f;}.cls-4{fill:#ff0;}.cls-5{fill:#d4145a;}.cls-6{fill:#fff;}.cls-7{fill:#d6bb7a;}</style></defs><title>mexicansprite</title><ellipse class="cls-1" cx="370.5" cy="690" rx="56" ry="11"/><path class="cls-1" d="M416.5,714h-92a10,10,0,0,1-10-10h0c0-15,1-15,10-10h92c4.12-10.09,10.52-8.38,10,10h0A10,10,0,0,1,416.5,714Z"/><ellipse class="cls-2" cx="367" cy="689" rx="46.5" ry="8"/><path class="cls-2" d="M406.15,381.92C459.44,514.29,378.2,588.49,254,592.83,134.93,597,80,523.26,98.61,400q1.35-8.87,3.19-18.06C124.76,267.71,169.93,171,254,171S362.64,273.86,406.15,381.92Z"/><path class="cls-3" d="M315.22,140.66c296.44,51.74,23.86,89-74.91,87.35s-401.94-93.71-74.9-87.35c58.41,1.14,48.08-72.78,74.9-87.35C411.53-39.72,278.42,134.24,315.22,140.66Z"/><path d="M396.93,423.16c22.95-4.92-51.91,22.56-95.75,4.95s-72.05-48.35-63-68.69,83.38-48.08,95.75-5C345.52,394.88,368.66,429.22,396.93,423.16Z"/><path d="M263.19,392.11c-2.32-22.94-70.07-72.58-77.83-35-21.65,104.8-84.6,18.06-69.43,48.08s37.16,38.62,77.83,35S265.51,415.06,263.19,392.11Z"/><path class="cls-4" d="M283.5,320.5c30.11,43.73,4.8,44.83-33,48.5-36.38,3.53-60-4.68-33-48.5,14-22.81,14.77-48.5,33-48.5S268.31,298.44,283.5,320.5Z"/><path class="cls-2" d="M350.54,575.35a12,12,0,0,0-13.34-10.49l-7.95.95a12,12,0,0,0-10.48,13.34l12,100.29a12,12,0,0,0,13.34,10.48l7.95-.95a12,12,0,0,0,10.48-13.34"/><ellipse class="cls-1" cx="144.6" cy="695" rx="56" ry="11" transform="matrix(1, 0, 0, 1, -0.96, 0.2)"/><path class="cls-1" d="M98.63,719.06l92-.12a10,10,0,0,0,10-10h0c0-15-1-15-10-10l-92,.12c-4.14-10.09-10.54-8.36-10,10h0A10,10,0,0,0,98.63,719.06Z"/><ellipse class="cls-2" cx="148.1" cy="694" rx="46.5" ry="8" transform="matrix(1, 0, 0, 1, -0.95, 0.2)"/><path class="cls-2" d="M164.4,580.32a12.05,12.05,0,0,1,13.33-10.51l8,1a12,12,0,0,1,10.5,13.32L184.3,684.38A12,12,0,0,1,171,694.89L163,694a12,12,0,0,1-10.5-13.33"/><rect class="cls-2" x="407.14" y="232.48" width="30.98" height="119.06" rx="12" ry="12" transform="translate(541.65 -207.71) rotate(68.76)"/><rect class="cls-2" x="65.14" y="232.48" width="30.98" height="119.06" rx="12" ry="12" transform="translate(370.45 380.19) rotate(122.36)"/><path class="cls-5" d="M433.37,212.19c-139.1,30.43-273.29,20.1-403.07-27.35-6.59-.44-11.71-4.74-11.38-9.55h0c-2.22-26.92,4.78-25,12.56-7.93C167.9,219,302.36,231.81,434.56,194.71c12.67-23.36,16.32-13.3,11.38,9.55h0C445.61,209.07,440,212.63,433.37,212.19Z"/><ellipse cx="202.5" cy="234.5" rx="14" ry="23.5"/><ellipse class="cls-6" cx="198.5" cy="221" rx="4" ry="6"/><ellipse cx="292.5" cy="230.5" rx="13" ry="23.5"/><ellipse class="cls-6" cx="296.21" cy="217" rx="3.71" ry="6"/><circle class="cls-5" cx="83" cy="213.5" r="5.5"/><rect class="cls-5" x="81.5" y="199" width="2" height="15"/><circle class="cls-5" cx="117" cy="223.5" r="5.5"/><rect class="cls-5" x="115.5" y="209" width="2" height="15"/><circle class="cls-5" cx="24" cy="196.5" r="5.5"/><rect class="cls-5" x="22.5" y="182" width="2" height="15"/><circle class="cls-5" cx="443" cy="221.5" r="5.5"/><rect class="cls-5" x="441.5" y="207" width="2" height="15"/><circle class="cls-5" cx="51" cy="206.5" r="5.5"/><rect class="cls-5" x="49.5" y="192" width="2" height="15"/><circle class="cls-5" cx="417" cy="229.5" r="5.5"/><rect class="cls-5" x="415.5" y="215" width="2" height="15"/><circle class="cls-5" cx="388" cy="233.5" r="5.5"/><rect class="cls-5" x="386.5" y="219" width="2" height="15"/><circle class="cls-5" cx="354" cy="238.5" r="5.5"/><rect class="cls-5" x="352.5" y="224" width="2" height="15"/><ellipse class="cls-5" cx="279.21" cy="117.09" rx="6" ry="7.14" transform="translate(141.49 386.72) rotate(-85.69)"/><ellipse class="cls-5" cx="300.37" cy="116.6" rx="6" ry="7.14" transform="translate(161.54 407.38) rotate(-85.69)"/><ellipse class="cls-5" cx="252.24" cy="114.66" rx="6" ry="7.14" transform="translate(118.96 357.57) rotate(-85.69)"/><ellipse class="cls-5" cx="222.73" cy="110.53" rx="6" ry="7.14" transform="translate(95.78 324.33) rotate(-85.69)"/><path class="cls-4" d="M206.54,118.68s-28.56,20.78-19.3,21.55,28.1,6,28.1,6Z"/><polygon class="cls-5" points="215.89 145.83 235.6 123.74 204.66 118.43 215.89 145.83"/><polygon class="cls-4" points="235.55 122.44 216.08 146.31 245.97 151.44 235.55 122.44"/><polygon class="cls-4" points="267.61 128.1 246.08 152.31 279.85 158.1 267.61 128.1"/><path class="cls-4" d="M301.52,128.78,280.5,159s59.06-5.89,49.53-6.94S302.75,130.18,301.52,128.78Z"/><polygon class="cls-5" points="246.85 151.06 266.6 128.74 235.66 123.43 246.85 151.06"/><polygon class="cls-5" points="280.81 158.94 298.71 130.58 265.04 129.34 280.81 158.94"/><path class="cls-5" d="M306.36,156.36c.86-9.41,1.42-19.17,3.28-28.41-15.77,1.41-18.77,3-19,4.51Z"/><path class="cls-7" d="M441.5,184c-124.87,10.37-244.65,11.19-358,0v1c114.61,6.92,234.29,6.41,358,0Z"/><path class="cls-7" d="M430.5,171c-135,10.37-264.46,11.19-387,0v1c123.9,6.92,253.27,6.41,387,0Z"/><path class="cls-7" d="M401.5,161c-130.8,10.37-256.26,11.19-375,0v1c120.05,6.92,245.42,6.41,375,0Z"/><path class="cls-7" d="M384.5,155c-124.87,10.37-244.65,11.19-358,0v1c114.61,6.92,234.29,6.41,358,0Z"/><path class="cls-7" d="M434.5,195c-110.57,10.37-216.63,11.19-317,0v1c101.49,6.92,207.46,6.41,317,0Z"/><path class="cls-7" d="M35.44,150.3c67.05-10.65,131.32-11.15,192.06,1.12v-1.07c-61.44-7.72-125.65-7.55-192-1.11Z"/><path class="cls-3" d="M1482.18,221.7c130.41,181.21-28.33,67.34-78.91,16.66s-166-260.34,1-92c29.84,30.07,58.3-21.09,78.91-16.66C1614.8,158,1466,199.21,1482.18,221.7Z"/><path class="cls-5" d="M1510.86,325.58c-86.23-51-151.26-124.9-197-219.64-3.22-3.59-3.92-8.84-1.55-11.66h0c11.17-17.86,13.94-13.15,10.16,1.38,47.3,100.67,111.31,176.26,197,219.64,17.27-8.15,14.57-.06,1.54,11.67h0C1518.65,329.79,1514.08,329.17,1510.86,325.58Z"/><ellipse class="cls-5" cx="1328.14" cy="150.25" rx="4.41" ry="3.8" transform="translate(991.72 1443.83) rotate(-81.88)"/><polygon class="cls-5" points="1328.17 150.81 1327.13 149.81 1333.99 140.48 1335.03 141.49 1328.17 150.81"/><ellipse class="cls-5" cx="1341.23" cy="173.56" rx="4.41" ry="3.8" transform="translate(979.89 1476.81) rotate(-81.88)"/><polygon class="cls-5" points="1341.26 174.13 1340.22 173.12 1347.09 163.79 1348.13 164.8 1341.26 174.13"/><ellipse class="cls-5" cx="1305.25" cy="110.02" rx="4.41" ry="3.8" transform="translate(1011.9 1386.62) rotate(-81.88)"/><polygon class="cls-5" points="1305.28 110.58 1304.24 109.58 1311.11 100.25 1312.14 101.25 1305.28 110.58"/><ellipse class="cls-5" cx="1511.6" cy="336.21" rx="4.41" ry="3.8" transform="translate(965.17 1785.14) rotate(-81.88)"/><polygon class="cls-5" points="1511.64 336.77 1510.6 335.77 1517.46 326.44 1518.5 327.45 1511.64 336.77"/><ellipse class="cls-5" cx="1314.71" cy="129.81" rx="4.41" ry="3.8" transform="translate(1000.42 1412.98) rotate(-81.88)"/><polygon class="cls-5" points="1314.74 130.37 1313.7 129.37 1320.56 120.04 1321.6 121.05 1314.74 130.37"/><ellipse class="cls-5" cx="1494.43" cy="328.12" rx="4.41" ry="3.8" transform="translate(958.44 1761.18) rotate(-81.88)"/><polygon class="cls-5" points="1494.46 328.68 1493.42 327.67 1500.29 318.34 1501.32 319.35 1494.46 328.68"/><ellipse class="cls-5" cx="1477.52" cy="316.02" rx="4.41" ry="3.8" transform="translate(955.89 1734.07) rotate(-81.88)"/><polygon class="cls-5" points="1477.55 316.59 1476.52 315.58 1483.38 306.25 1484.42 307.26 1477.55 316.59"/><ellipse class="cls-5" cx="1457.56" cy="302.04" rx="4.41" ry="3.8" transform="translate(952.59 1702.3) rotate(-81.88)"/><polygon class="cls-5" points="1457.59 302.6 1456.55 301.6 1463.42 292.27 1464.46 293.27 1457.59 302.6"/><ellipse class="cls-5" cx="1474.25" cy="188.94" rx="4.42" ry="5.36" transform="translate(32.69 550.88) rotate(-21.4)"/><ellipse class="cls-5" cx="1485.47" cy="199.28" rx="4.42" ry="5.36" transform="translate(29.69 555.69) rotate(-21.4)"/><ellipse class="cls-5" cx="1461.34" cy="173.87" rx="4.42" ry="5.36" transform="translate(37.29 545.14) rotate(-21.4)"/><ellipse class="cls-5" cx="1447.89" cy="156.47" rx="4.42" ry="5.36" transform="translate(42.72 539.03) rotate(-21.4)"/><path class="cls-4" d="M1435.75,153.39s-24.35-1.43-19.89,3.71S1427.71,175,1427.71,175Z"/><polygon class="cls-5" points="1428.18 174.98 1448.54 171.15 1434.88 152.29 1428.18 174.98"/><polygon class="cls-4" points="1449.11 170.32 1428.06 175.38 1441.25 193.59 1449.11 170.32"/><polygon class="cls-4" points="1463.18 189.96 1440.91 194.19 1455.81 214.77 1463.18 189.96"/><path class="cls-4" d="M1480.49,207.43l-24.75,8.22s33.4,26,28.93,20.58S1480.5,208.91,1480.49,207.43Z"/><polygon class="cls-5" points="1441.88 193.79 1462.37 189.85 1448.71 170.99 1441.88 193.79"/><polygon class="cls-5" points="1455.93 215.77 1478.21 207.14 1461.28 189.44 1455.93 215.77"/><path class="cls-5" d="M1470.39,227c4.76-5.42,9.52-11.21,14.71-16-8.85-7.05-11.11-7.6-11.93-6.73Z"/><path class="cls-7" d="M1528,312.14c-69.66-56.33-132.29-116-186.09-180l-.46.62c56.41,61.92,118.85,121.77,186.09,180Z"/><path class="cls-7" d="M1528.22,298.52c-74.91-61.41-142.59-126-201.17-194.55l-.45.62c61.23,66.59,128.71,131.31,201.16,194.56Z"/><path class="cls-7" d="M1517.72,277.73C1445,218.41,1379.39,155.85,1322.79,89.2l-.45.62c59.23,64.66,124.63,127.37,194.92,188.53Z"/><path class="cls-7" d="M1511.63,265.45c-69.65-56.33-132.29-116-186.09-180l-.46.62c56.41,61.92,118.86,121.78,186.09,180Z"/><path class="cls-7" d="M1519.31,315.46c-62.22-49.14-117.72-101.95-164.77-159.37l-.46.62C1403.66,212,1459,265,1518.86,316.08Z"/><path class="cls-7" d="M1332.34,87c39.73,27.09,73.36,59.08,99.32,97.25l.49-.66c-28.4-35.69-61.86-67.87-99.32-97.25Z"/><ellipse class="cls-1" cx="1487.5" cy="690" rx="56" ry="11"/><path class="cls-1" d="M1533.5,714h-92a10,10,0,0,1-10-10h0c0-15,1-15,10-10h92c4.12-10.09,10.52-8.38,10,10h0A10,10,0,0,1,1533.5,714Z"/><ellipse class="cls-2" cx="1484" cy="689" rx="46.5" ry="8"/><path class="cls-2" d="M1523.15,381.92c53.29,132.37-28,206.57-152.17,210.91-119,4.17-174-69.57-155.37-192.85q1.35-8.87,3.19-18.06C1241.76,267.71,1286.93,171,1371,171S1479.64,273.86,1523.15,381.92Z"/><path d="M1513.93,423.16c23-4.92-51.91,22.56-95.75,4.95s-72-48.35-63-68.69,83.38-48.08,95.75-5C1462.52,394.88,1485.66,429.22,1513.93,423.16Z"/><path d="M1380.19,392.11c-2.32-22.94-70.07-72.58-77.83-35-21.65,104.8-84.6,18.06-69.43,48.08s37.16,38.62,77.83,35S1382.51,415.06,1380.19,392.11Z"/><path class="cls-4" d="M1400.5,320.5c30.11,43.73,4.8,44.83-33,48.5-36.38,3.53-60-4.68-33-48.5,14-22.81,14.77-48.5,33-48.5S1385.31,298.44,1400.5,320.5Z"/><path class="cls-2" d="M1467.54,575.35a12,12,0,0,0-13.34-10.49l-8,.95a12,12,0,0,0-10.48,13.34l12,100.29a12,12,0,0,0,13.34,10.48l8-.95a12,12,0,0,0,10.48-13.34"/><ellipse class="cls-1" cx="1261.6" cy="695" rx="56" ry="11" transform="matrix(1, 0, 0, 1, -0.95, 1.73)"/><path class="cls-1" d="M1215.63,719.06l92-.12a10,10,0,0,0,10-10h0c0-15-1-15-10-10l-92,.12c-4.14-10.09-10.54-8.36-10,10h0A10,10,0,0,0,1215.63,719.06Z"/><ellipse class="cls-2" cx="1265.1" cy="694" rx="46.5" ry="8" transform="matrix(1, 0, 0, 1, -0.95, 1.74)"/><path class="cls-2" d="M1281.4,580.32a12.05,12.05,0,0,1,13.33-10.51l8,1a12,12,0,0,1,10.5,13.32l-11.88,100.3A12,12,0,0,1,1288,694.89l-8-.94a12,12,0,0,1-10.5-13.33"/><rect class="cls-2" x="1524.14" y="232.48" width="30.98" height="119.06" rx="12" ry="12" transform="translate(1253.9 -1248.8) rotate(68.76)"/><rect class="cls-2" x="1182.14" y="232.48" width="30.98" height="119.06" rx="12" ry="12" transform="translate(2085.27 -563.37) rotate(122.36)"/><ellipse cx="1409.5" cy="230.5" rx="13" ry="23.5"/><ellipse class="cls-6" cx="1413.21" cy="217" rx="3.71" ry="6"/><ellipse cx="1319.5" cy="234.5" rx="14" ry="23.5"/><ellipse class="cls-6" cx="1315.5" cy="221" rx="4" ry="6"/><path class="cls-3" d="M2032.41,256.42c-12.09,138.08-51,10.9-56.19-35.14s30.3-187.17,46.88-34.71c3,27.23,45.93,22.6,56.19,35.14C2144.83,301.76,2033.92,239.28,2032.41,256.42Z"/><path class="cls-5" d="M1997.56,311.33c-26.61-64.93-28.85-127.47-8.93-187.86a4.77,4.77,0,0,1,4.93-5.28h0c15.74-1,15.06,2.29,5.46,5.88-22,63.47-21.19,126.13,8.93,187.85,14.56,6,8.86,7.65-4.93,5.29h0A6.16,6.16,0,0,1,1997.56,311.33Z"/><ellipse class="cls-5" cx="1975" cy="147.97" rx="2.53" ry="3.29" transform="translate(1414.1 2047.42) rotate(-77.83)"/><polygon class="cls-5" points="1974.74 148.2 1974.61 147.27 1983.46 147.31 1983.59 148.24 1974.74 148.2"/><ellipse class="cls-5" cx="1971.21" cy="163.8" rx="2.53" ry="3.29" transform="translate(1395.64 2056.21) rotate(-77.83)"/><polygon class="cls-5" points="1970.95 164.03 1970.83 163.1 1979.68 163.14 1979.8 164.07 1970.95 164.03"/><ellipse class="cls-5" cx="1981.36" cy="120.51" rx="2.53" ry="3.29" transform="translate(1445.97 2031.97) rotate(-77.83)"/><polygon class="cls-5" points="1981.1 120.74 1980.97 119.81 1989.82 119.84 1989.95 120.78 1981.1 120.74"/><ellipse class="cls-5" cx="1992.66" cy="315.8" rx="2.53" ry="3.29" transform="translate(1263.99 2197.14) rotate(-77.83)"/><polygon class="cls-5" points="1992.4 316.03 1992.28 315.1 2001.13 315.13 2001.25 316.06 1992.4 316.03"/><ellipse class="cls-5" cx="1977.14" cy="133.07" rx="2.53" ry="3.29" transform="translate(1430.36 2037.75) rotate(-77.83)"/><polygon class="cls-5" points="1976.88 133.3 1976.75 132.37 1985.6 132.41 1985.73 133.34 1976.88 133.3"/><ellipse class="cls-5" cx="1986.33" cy="303.65" rx="2.53" ry="3.29" transform="translate(1270.86 2181.37) rotate(-77.83)"/><polygon class="cls-5" points="1986.06 303.89 1985.94 302.95 1994.79 302.99 1994.91 303.92 1986.06 303.89"/><ellipse class="cls-5" cx="1982.16" cy="290.12" rx="2.53" ry="3.29" transform="translate(1280.8 2166.62) rotate(-77.83)"/><polygon class="cls-5" points="1981.9 290.36 1981.78 289.42 1990.63 289.46 1990.75 290.39 1981.9 290.36"/><ellipse class="cls-5" cx="1977.1" cy="274.26" rx="2.53" ry="3.29" transform="translate(1292.31 2149.15) rotate(-77.83)"/><polygon class="cls-5" points="1976.84 274.49 1976.71 273.56 1985.56 273.6 1985.69 274.53 1976.84 274.49"/><ellipse class="cls-5" cx="2044.08" cy="239.69" rx="3.22" ry="3.65" transform="translate(868.95 1929.3) rotate(-61.87)"/><ellipse class="cls-5" cx="2045.68" cy="249.56" rx="3.22" ry="3.65" transform="translate(861.1 1935.93) rotate(-61.87)"/><ellipse class="cls-5" cx="2043.84" cy="227.12" rx="3.22" ry="3.65" transform="translate(879.91 1922.44) rotate(-61.87)"/><ellipse class="cls-5" cx="2044.44" cy="213.37" rx="3.22" ry="3.65" transform="translate(892.35 1915.71) rotate(-61.87)"/><path class="cls-4" d="M2038.63,205.8s-14-13.36-13.92-9.05-1.79,13.09-1.79,13.09Z"/><polygon class="cls-5" points="2023.19 210.09 2037.45 219.34 2038.65 204.92 2023.19 210.09"/><polygon class="cls-4" points="2038.21 219.32 2022.91 210.18 2021.75 224.1 2038.21 219.32"/><polygon class="cls-4" points="2036.86 234.25 2021.24 224.15 2019.92 239.89 2036.86 234.25"/><path class="cls-4" d="M2038.57,250.06l-19.13-9.87s7.14,27.55,7.17,23.11S2037.82,250.63,2038.57,250.06Z"/><polygon class="cls-5" points="2022.03 224.51 2036.43 233.78 2037.63 219.37 2022.03 224.51"/><polygon class="cls-5" points="2019.49 240.33 2037.33 248.75 2035.97 233.05 2019.49 240.33"/><path class="cls-5" d="M2022.6,252.25c5.61.43,11.4.71,17,1.6-1.82-7.36-2.91-8.76-3.85-8.86Z"/><path class="cls-7" d="M2014.7,315.19c-13.89-58.25-21.82-114.09-22.26-166.91h-.59c3,53.42,10.78,109.22,22.26,166.92Z"/><path class="cls-7" d="M2021.68,310.09c-14.51-63-23-123.33-24.06-180.43H1997c3.62,57.74,12,118.07,24.06,180.43Z"/><path class="cls-7" d="M2025.78,296.6c-14.25-61-22.54-119.51-23.32-174.84h-.59c3.38,56,11.48,114.4,23.32,174.83Z"/><path class="cls-7" d="M2028.26,288.68c-13.88-58.24-21.81-114.09-22.26-166.91h-.59c3,53.42,10.79,109.22,22.26,166.91Z"/><path class="cls-7" d="M2007.77,311.9c-13-51.58-20.07-101-19.71-147.8h-.59c2.23,47.3,9.12,96.71,19.71,147.8Z"/><path class="cls-7" d="M2009.33,126c10.45,31.29,14.75,61.25,11.28,89.54h.63c.74-28.63-3.35-58.57-11.28-89.54Z"/><ellipse class="cls-1" cx="2039.5" cy="690" rx="56" ry="11"/><path class="cls-1" d="M2085.5,714h-92a10,10,0,0,1-10-10h0c0-15,1-15,10-10h92c4.12-10.09,10.52-8.38,10,10h0A10,10,0,0,1,2085.5,714Z"/><ellipse class="cls-2" cx="2036" cy="689" rx="46.5" ry="8"/><path class="cls-2" d="M2075.15,381.92c53.29,132.37-28,206.57-152.17,210.91-119,4.17-174-69.57-155.37-192.85q1.35-8.87,3.19-18.06C1793.76,267.71,1838.93,171,1923,171S2031.64,273.86,2075.15,381.92Z"/><path d="M2065.93,423.16c23-4.92-51.91,22.56-95.75,4.95s-72-48.35-63-68.69,83.38-48.08,95.75-5C2014.52,394.88,2037.66,429.22,2065.93,423.16Z"/><path d="M1932.19,392.11c-2.32-22.94-70.07-72.58-77.83-35-21.65,104.8-84.6,18.06-69.43,48.08s37.16,38.62,77.83,35S1934.51,415.06,1932.19,392.11Z"/><path class="cls-4" d="M1952.5,320.5c30.11,43.73,4.8,44.83-33,48.5-36.38,3.53-60-4.68-33-48.5,14-22.81,14.77-48.5,33-48.5S1937.31,298.44,1952.5,320.5Z"/><path class="cls-2" d="M2019.54,575.35a12,12,0,0,0-13.34-10.49l-8,.95a12,12,0,0,0-10.48,13.34l12,100.29a12,12,0,0,0,13.34,10.48l8-.95a12,12,0,0,0,10.48-13.34"/><ellipse class="cls-1" cx="1813.6" cy="695" rx="56" ry="11" transform="matrix(1, 0, 0, 1, -0.95, 2.49)"/><path class="cls-1" d="M1767.63,719.06l92-.12a10,10,0,0,0,10-10h0c0-15-1-15-10-10l-92,.12c-4.14-10.09-10.54-8.36-10,10h0A10,10,0,0,0,1767.63,719.06Z"/><ellipse class="cls-2" cx="1817.1" cy="694" rx="46.5" ry="8" transform="matrix(1, 0, 0, 1, -0.95, 2.5)"/><path class="cls-2" d="M1833.4,580.32a12.05,12.05,0,0,1,13.33-10.51l8,1a12,12,0,0,1,10.5,13.32l-11.88,100.3A12,12,0,0,1,1840,694.89l-8-.94a12,12,0,0,1-10.5-13.33"/><rect class="cls-2" x="2076.14" y="232.48" width="30.98" height="119.06" rx="12" ry="12" transform="translate(1605.88 -1763.28) rotate(68.76)"/><rect class="cls-2" x="1734.14" y="232.48" width="30.98" height="119.06" rx="12" ry="12" transform="translate(2932.71 -1029.65) rotate(122.36)"/><ellipse cx="1961.5" cy="230.5" rx="13" ry="23.5"/><ellipse class="cls-6" cx="1965.21" cy="217" rx="3.71" ry="6"/><ellipse cx="1871.5" cy="234.5" rx="14" ry="23.5"/><ellipse class="cls-6" cx="1867.5" cy="221" rx="4" ry="6"/><ellipse class="cls-1" cx="906.5" cy="690" rx="56" ry="11"/><path class="cls-1" d="M952.5,714h-92a10,10,0,0,1-10-10h0c0-15,1-15,10-10h92c4.12-10.09,10.52-8.38,10,10h0A10,10,0,0,1,952.5,714Z"/><ellipse class="cls-2" cx="903" cy="689" rx="46.5" ry="8"/><path class="cls-2" d="M942.15,381.92C995.44,514.29,914.2,588.49,790,592.83,670.93,597,616,523.26,634.61,400q1.35-8.87,3.19-18.06C660.76,267.71,705.93,171,790,171S898.64,273.86,942.15,381.92Z"/><path d="M932.93,423.16c23-4.92-51.91,22.56-95.75,4.95s-72-48.35-63-68.69,83.38-48.08,95.75-5C881.52,394.88,904.66,429.22,932.93,423.16Z"/><path d="M799.19,392.11c-2.32-22.94-70.07-72.58-77.83-35-21.65,104.8-84.6,18.06-69.43,48.08s37.16,38.62,77.83,35S801.51,415.06,799.19,392.11Z"/><path class="cls-4" d="M819.5,320.5c30.11,43.73,4.8,44.83-33,48.5-36.38,3.53-60-4.68-33-48.5,14-22.81,14.77-48.5,33-48.5S804.31,298.44,819.5,320.5Z"/><path class="cls-2" d="M886.54,575.35a12,12,0,0,0-13.34-10.49l-8,.95a12,12,0,0,0-10.48,13.34l12,100.29a12,12,0,0,0,13.34,10.48l8-.95a12,12,0,0,0,10.48-13.34"/><ellipse class="cls-1" cx="680.6" cy="695" rx="56" ry="11" transform="matrix(1, 0, 0, 1, -0.95, 0.94)"/><path class="cls-1" d="M634.63,719.06l92-.12a10,10,0,0,0,10-10h0c0-15-1-15-10-10l-92,.12c-4.14-10.09-10.54-8.36-10,10h0A10,10,0,0,0,634.63,719.06Z"/><ellipse class="cls-2" cx="684.1" cy="694" rx="46.5" ry="8" transform="matrix(1, 0, 0, 1, -0.95, 0.94)"/><path class="cls-2" d="M700.4,580.32a12.05,12.05,0,0,1,13.33-10.51l7.95,1a12,12,0,0,1,10.5,13.32L720.3,684.38A12,12,0,0,1,707,694.89l-8-.94a12,12,0,0,1-10.5-13.33"/><rect class="cls-2" x="943.14" y="232.48" width="30.98" height="119.06" rx="12" ry="12" transform="translate(883.43 -707.28) rotate(68.76)"/><rect class="cls-2" x="601.14" y="232.48" width="30.98" height="119.06" rx="12" ry="12" transform="translate(1193.32 -72.58) rotate(122.36)"/><ellipse cx="828.5" cy="230.5" rx="13" ry="23.5"/><ellipse class="cls-6" cx="832.21" cy="217" rx="3.71" ry="6"/><ellipse cx="738.5" cy="234.5" rx="14" ry="23.5"/><ellipse class="cls-6" cx="734.5" cy="221" rx="4" ry="6"/><path class="cls-3" d="M886.82,152.59c232.58,95.22,5.59,83.36-74.31,65.54S500.79,68,765.23,127.79c47.23,10.68,50.29-57,74.31-65.54C992.89,7.58,858,140.77,886.82,152.59Z"/><path class="cls-5" d="M971.64,236c-117.6,4.14-224.91-27.29-322.9-91.1-5.27-1.49-8.76-6.17-7.75-10.41h0c2.36-24.38,7.75-21.53,11.42-5,102.73,68.61,209.87,102.33,322.9,91.1,13.9-18.74,15.3-9.16,7.76,10.41h0C982.06,235.2,976.92,237.45,971.64,236Z"/><ellipse class="cls-5" cx="687.08" cy="179.15" rx="4.99" ry="4.54" transform="translate(489.69 861.21) rotate(-88.47)"/><polygon class="cls-5" points="687.41 179.68 685.79 179.35 688.11 165.96 689.73 166.29 687.41 179.68"/><ellipse class="cls-5" cx="713.13" cy="193.7" rx="4.99" ry="4.54" transform="translate(500.5 901.41) rotate(-88.47)"/><polygon class="cls-5" points="713.46 194.23 711.83 193.9 714.15 180.51 715.78 180.84 713.46 194.23"/><ellipse class="cls-5" cx="641.83" cy="154.22" rx="4.99" ry="4.54" transform="translate(470.57 791.71) rotate(-88.47)"/><polygon class="cls-5" points="642.16 154.75 640.53 154.41 642.86 141.03 644.48 141.36 642.16 154.75"/><ellipse class="cls-5" cx="978.02" cy="245.87" rx="4.99" ry="4.54" transform="translate(706.18 1216.98) rotate(-88.47)"/><polygon class="cls-5" points="978.34 246.39 976.72 246.06 979.04 232.68 980.66 233.01 978.34 246.39"/><ellipse class="cls-5" cx="662.19" cy="167.61" rx="4.99" ry="4.54" transform="translate(477 825.1) rotate(-88.47)"/><polygon class="cls-5" points="662.52 168.14 660.9 167.81 663.22 154.42 664.84 154.75 662.52 168.14"/><ellipse class="cls-5" cx="955.68" cy="248.7" rx="4.99" ry="4.54" transform="translate(681.6 1197.41) rotate(-88.47)"/><polygon class="cls-5" points="956 249.23 954.38 248.9 956.7 235.51 958.33 235.84 956 249.23"/><ellipse class="cls-5" cx="931.52" cy="247.47" rx="4.99" ry="4.54" transform="translate(659.32 1172.07) rotate(-88.47)"/><polygon class="cls-5" points="931.85 248 930.23 247.67 932.55 234.28 934.17 234.62 931.85 248"/><ellipse class="cls-5" cx="903.15" cy="246.3" rx="4.99" ry="4.54" transform="translate(632.87 1142.58) rotate(-88.47)"/><polygon class="cls-5" points="903.48 246.83 901.86 246.5 904.18 233.12 905.8 233.45 903.48 246.83"/><ellipse class="cls-5" cx="861.24" cy="125.59" rx="5.39" ry="5.95" transform="translate(349.43 829.55) rotate(-62.28)"/><ellipse class="cls-5" cx="878.49" cy="128.67" rx="5.39" ry="5.95" transform="translate(355.93 846.46) rotate(-62.28)"/><ellipse class="cls-5" cx="839.73" cy="118.96" rx="5.39" ry="5.95" transform="translate(343.79 806.96) rotate(-62.28)"/><ellipse class="cls-5" cx="816.42" cy="110.4" rx="5.39" ry="5.95" transform="translate(338.9 781.74) rotate(-62.28)"/><path class="cls-4" d="M802,115s-26.39,13.81-19,16,21.88,10,21.88,10Z"/><polygon class="cls-5" points="805.4 140.76 824.82 124.31 800.53 114.45 805.4 140.76"/><polygon class="cls-4" points="824.99 123.14 805.48 141.22 828.95 150.74 824.99 123.14"/><polygon class="cls-4" points="850.13 133.5 828.9 151.54 855.42 162.3 850.13 133.5"/><path class="cls-4" d="M877.54,139.72,855.8,163.21s48.85,4.52,41.28,2S878.32,141.17,877.54,139.72Z"/><polygon class="cls-5" points="829.72 150.55 849.21 133.9 824.91 124.05 829.72 150.55"/><polygon class="cls-5" points="856.06 163.2 874.98 140.86 847.85 134.18 856.06 163.2"/><path class="cls-5" d="M877.2,165.13c2.16-8.26,4.12-16.87,7.06-24.81-13-1.35-15.69-.47-16.11.89Z"/><path class="cls-7" d="M982.6,212.16c-103-11.42-200.28-30.5-290.55-59.25l-.15.89c91.94,25.15,189.16,44.5,290.55,59.25Z"/><path class="cls-7" d="M975.69,198.74C864.53,185.65,759.32,165,661.6,134.69l-.15.89c99.48,26.68,204.56,47.64,314.08,64Z"/><path class="cls-7" d="M953.7,185C845.94,172.62,744,152.59,649.35,123l-.15.9c96.36,26,198.18,46.33,304.34,62.06Z"/><path class="cls-7" d="M940.83,176.85c-103-11.42-200.29-30.5-290.55-59.25l-.15.89c91.94,25.15,189.15,44.5,290.54,59.25Z"/><path class="cls-7" d="M975.22,220.81c-91.34-9-177.55-25.86-257.28-52.46l-.15.89c81.29,23,167.38,40.06,257.27,52.47Z"/><path class="cls-7" d="M658.26,114.89c56.07,1.59,108.3,11.78,155.7,32.78l.17-.95c-48.67-17.06-100.81-27.54-155.7-32.78Z"/><ellipse class="cls-1" cx="2598.5" cy="690" rx="56" ry="11"/><path class="cls-1" d="M2644.5,714h-92a10,10,0,0,1-10-10h0c0-15,1-15,10-10h92c4.12-10.09,10.52-8.38,10,10h0A10,10,0,0,1,2644.5,714Z"/><ellipse class="cls-2" cx="2595" cy="689" rx="46.5" ry="8"/><path class="cls-2" d="M2634.15,381.92c53.29,132.37-28,206.57-152.17,210.91C2362.93,597,2308,523.26,2326.61,400q1.35-8.87,3.19-18.06C2352.76,267.71,2397.93,171,2482,171S2590.64,273.86,2634.15,381.92Z"/><path d="M2624.93,423.16c23-4.92-51.91,22.56-95.75,4.95s-72-48.35-63-68.69,83.38-48.08,95.75-5C2573.52,394.88,2596.66,429.22,2624.93,423.16Z"/><path d="M2491.19,392.11c-2.32-22.94-70.07-72.58-77.83-35-21.65,104.8-84.6,18.06-69.43,48.08s37.16,38.62,77.83,35S2493.51,415.06,2491.19,392.11Z"/><path class="cls-4" d="M2511.5,320.5c30.11,43.73,4.8,44.83-33,48.5-36.38,3.53-60-4.68-33-48.5,14-22.81,14.77-48.5,33-48.5S2496.31,298.44,2511.5,320.5Z"/><path class="cls-2" d="M2578.54,575.35a12,12,0,0,0-13.34-10.49l-7.95.95a12,12,0,0,0-10.48,13.34l12,100.29a12,12,0,0,0,13.34,10.48l8-.95a12,12,0,0,0,10.48-13.34"/><ellipse class="cls-1" cx="2372.6" cy="695" rx="56" ry="11" transform="matrix(1, 0, 0, 1, -0.95, 3.26)"/><path class="cls-1" d="M2326.63,719.06l92-.12a10,10,0,0,0,10-10h0c0-15-1-15-10-10l-92,.12c-4.14-10.09-10.54-8.36-10,10h0A10,10,0,0,0,2326.63,719.06Z"/><ellipse class="cls-2" cx="2376.1" cy="694" rx="46.5" ry="8" transform="matrix(1, 0, 0, 1, -0.95, 3.27)"/><path class="cls-2" d="M2392.4,580.32a12.05,12.05,0,0,1,13.33-10.51l7.95,1a12,12,0,0,1,10.5,13.32l-11.88,100.3A12,12,0,0,1,2399,694.89L2391,694a12,12,0,0,1-10.5-13.33"/><rect class="cls-2" x="2635.14" y="232.48" width="30.98" height="119.06" rx="12" ry="12" transform="translate(1962.33 -2284.29) rotate(68.76)"/><rect class="cls-2" x="2293.14" y="232.48" width="30.98" height="119.06" rx="12" ry="12" transform="translate(3790.88 -1501.85) rotate(122.36)"/><ellipse cx="2520.5" cy="230.5" rx="13" ry="23.5"/><ellipse class="cls-6" cx="2524.21" cy="217" rx="3.71" ry="6"/><ellipse cx="2430.5" cy="234.5" rx="14" ry="23.5"/><ellipse class="cls-6" cx="2426.5" cy="221" rx="4" ry="6"/></svg>
